<svg xmlns="http://www.w3.org/2000/svg" width="31.923" height="32.695" viewBox="0 0 31.923 32.695">
  <g id="Contato_web_" data-name="Contato (web)" transform="translate(0 0)">
    <path id="Caminho_13" data-name="Caminho 13" d="M1637.9,717.544a8.448,8.448,0,1,0-8.447-8.448A8.457,8.457,0,0,0,1637.9,717.544Zm0-13.923a5.475,5.475,0,1,1-5.475,5.475A5.481,5.481,0,0,1,1637.9,703.621Z" transform="translate(-1621.937 -700.649)" fill="#f7f5f5"/>
    <path id="Caminho_14" data-name="Caminho 14" d="M1641.479,724.269h-12.355a9.8,9.8,0,0,0-9.785,9.785v3.873a1.486,1.486,0,1,0,2.972,0v-3.873a6.82,6.82,0,0,1,6.813-6.812h12.355a6.82,6.82,0,0,1,6.812,6.812v3.873a1.486,1.486,0,1,0,2.972,0v-3.873A9.8,9.8,0,0,0,1641.479,724.269Z" transform="translate(-1619.339 -706.718)" fill="#f7f5f5"/>
  </g>
</svg>
