<svg xmlns="http://www.w3.org/2000/svg" width="38.338" height="39.387" viewBox="0 0 38.338 39.387">
  <g id="Grupo_49" data-name="Grupo 49" transform="translate(-692.006 -591.197)">
    <g id="Grupo_47" data-name="Grupo 47" transform="translate(705.051 622.804)">
      <path id="Caminho_27" data-name="Caminho 27" d="M709.256,619.658a3.389,3.389,0,1,1-3.389-3.39A3.389,3.389,0,0,1,709.256,619.658Z" transform="translate(-702.479 -616.268)" fill="none" stroke="#fff" stroke-linejoin="round" stroke-width="2"/>
      <path id="Caminho_28" data-name="Caminho 28" d="M719.866,619.658a3.388,3.388,0,1,1-3.389-3.39A3.389,3.389,0,0,1,719.866,619.658Z" transform="translate(-699.598 -616.268)" fill="none" stroke="#fff" stroke-linejoin="round" stroke-width="2"/>
    </g>
    <g id="Grupo_48" data-name="Grupo 48" transform="translate(693.006 592.197)">
      <path id="Caminho_29" data-name="Caminho 29" d="M693.006,592.2h6.961l5.072,23.242-2.358,3.421h26.24" transform="translate(-693.006 -592.197)" fill="none" stroke="#fffefd" stroke-linecap="round" stroke-linejoin="round" stroke-width="2"/>
      <path id="Caminho_30" data-name="Caminho 30" d="M727.63,610.291,702.973,612.3l-3.658-18.523H727.63Z" transform="translate(-691.293 -591.769)" fill="#19180a" stroke="#fff" stroke-linejoin="round" stroke-width="2"/>
    </g>
  </g>
</svg>
